<svg width="60" height="60" viewBox="0 0 60 60" fill="none" xmlns="http://www.w3.org/2000/svg">
<path d="M50 55.225L56.125 58.95L54.5 51.925L60 47.225L52.775 46.6L50 40L47.175 46.6L40 47.225L45.45 51.925L43.75 58.95L50 55.225ZM35.2 52.5H5C2.275 52.4 0.1 50.225 0 47.5V12.5C0.1 9.775 2.275 7.6 5 7.5H55C57.725 7.6 59.9 9.775 60 12.5V38.825C58.55 37.5 56.875 36.525 55 35.85V12.5H5V47.5H35.2C35.075 48.325 35 49.15 35 50C35 50.85 35.075 51.7 35.2 52.5ZM35 42.5H10V39.375C10 35.225 18.35 33.125 22.5 33.125C26.65 33.125 35 35.225 35 39.375V42.5ZM35 27.5H45V30H35V27.5ZM22.5 17.5C19.075 17.5 16.25 20.325 16.25 23.75C16.25 27.175 19.075 30 22.5 30C25.925 30 28.75 27.175 28.75 23.75C28.75 20.325 25.925 17.5 22.5 17.5ZM35 22.5H50V25H35V22.5ZM35 17.5H50V20H35V17.5Z" fill="#6F5440"/>
</svg>
