<svg width="60" height="60" viewBox="0 0 60 60" fill="none" xmlns="http://www.w3.org/2000/svg">
<path d="M32.5 7.5C42.25 7.5 50 15.25 50 25C50 32 46 38 40 40.75V52.5H22.5V45H20C17.25 45 15 42.75 15 40V32.5H11.25C10.25 32.5 9.50001 31.25 10.25 30.5L15 24.25C15.5 14.75 23 7.5 32.5 7.5ZM32.5 2.5C21 2.5 11.5 11 10.25 22.25L6.25001 27.5C4.75001 29.5 4.75001 32 5.75001 34C6.75001 35.75 8.25001 37 10 37.25V40C10 44.75 13.25 48.5 17.5 49.75V57.5H45V43.75C51.25 39.5 55 32.75 55 25C55 12.5 45 2.5 32.5 2.5ZM35 35H30V32.5H35V35ZM39 23.75C38.25 24.75 37.5 25.75 36.25 26.5V30H28.75V26.5C25.25 24.5 24 19.75 26 16.25C28 12.75 32.75 11.5 36.25 13.5C39.75 15.5 41 20.25 39 23.75Z" fill="#6F5440"/>
</svg>
